<svg width="200" height="101" viewBox="0 0 200 101" fill="none" xmlns="http://www.w3.org/2000/svg">
<mask id="mask0_1301_343" style="mask-type:alpha" maskUnits="userSpaceOnUse" x="22" y="31" width="157" height="41">
<path d="M41.5416 36.9575H36.4575V31.5557H41.5416V36.9575ZM27.8781 57.691C27.8781 59.8624 28.646 61.7424 30.1818 63.3312C31.7706 64.867 33.6771 65.6349 35.9014 65.6349H41.5416V71.0368H35.9014C32.1942 71.0368 29.0432 69.7393 26.4482 67.1443C23.8532 64.4963 22.5557 61.3452 22.5557 57.691V31.6351H27.8781V57.691Z" fill="white"/>
<path d="M58.2063 37.1958H55.7437V55.9434H58.2063L58.1269 61.2658H47.8793L47.9587 55.864H50.3419V37.1958H47.9587V31.794L58.2063 31.8734V37.1958ZM58.2063 65.6349L58.1269 71.0368L47.8793 70.9573L47.9587 65.6349H58.2063Z" fill="white"/>
<path d="M81.6389 71.0368H69.0876V65.6349H81.6389V71.0368ZM89.3445 31.6351H94.7463V71.0368H89.3445V57.8499C86.6436 60.1272 83.519 61.2658 79.9707 61.2658C75.8399 61.2658 72.3181 59.8094 69.4054 56.8967C66.5456 53.9839 65.1157 50.4886 65.1157 46.4107C65.1157 42.3329 66.5456 38.864 69.4054 36.0042C72.3181 33.0915 75.8399 31.6351 79.9707 31.6351C83.519 31.6351 86.6436 32.7737 89.3445 35.051V31.6351ZM73.2184 53.163C75.072 54.9636 77.2963 55.864 79.8913 55.864C82.5392 55.864 84.7635 54.9636 86.5641 53.163C88.4177 51.3095 89.3445 49.0852 89.3445 46.4902C89.3445 43.8422 88.4177 41.6179 86.5641 39.8173C84.7635 37.9637 82.5392 37.0369 79.8913 37.0369C77.2963 37.0369 75.072 37.9637 73.2184 39.8173C71.4178 41.6179 70.5175 43.8422 70.5175 46.4902C70.5175 49.0852 71.4178 51.3095 73.2184 53.163Z" fill="white"/>
<path d="M114.313 37.1164H100.014V31.794L114.313 31.7145V37.1164ZM122.734 41.4855H128.135V71.0368H117.729C114.287 71.0368 111.347 69.8452 108.911 67.462C106.475 65.0259 105.257 62.0867 105.257 58.6443V46.8079H100.014V41.4855H110.659V58.6443C110.659 59.9153 110.977 61.1069 111.612 62.2191C112.248 63.2782 113.095 64.1256 114.154 64.7611C115.266 65.3966 116.458 65.7144 117.729 65.7144H122.734V41.4855Z" fill="white"/>
<path d="M146.179 37.1958H143.716V55.9434H146.179L146.099 61.2658H135.852L135.931 55.864H138.314V37.1958H135.931V31.794L146.179 31.8734V37.1958ZM146.179 65.6349L146.099 71.0368L135.852 70.9573L135.931 65.6349H146.179Z" fill="white"/>
<path d="M178.111 71.0368H167.546C163.521 71.0368 160.079 69.6069 157.219 66.7471C154.359 63.8873 152.929 60.4449 152.929 56.42C152.929 52.3951 154.359 48.9528 157.219 46.093C160.079 43.2332 163.521 41.8033 167.546 41.8033H172.709V31.7145H178.111V71.0368ZM167.546 65.6349H172.709V47.1257H167.546C165.004 47.1257 162.806 48.0525 160.952 49.906C159.152 51.7067 158.252 53.878 158.252 56.42C158.252 58.9621 159.152 61.1334 160.952 62.934C162.806 64.7346 165.004 65.6349 167.546 65.6349ZM168.658 37.0369L158.41 37.1164V31.7145H168.658V37.0369Z" fill="white"/>
</mask>
<g mask="url(#mask0_1301_343)">
<rect x="-153" y="-202" width="506.667" height="506.667" fill="black"/>
<path fill-rule="evenodd" clip-rule="evenodd" d="M117.884 -50.8523C148.055 -49.4875 160.104 -11.5571 175.918 14.1734C186.922 32.0769 189.619 51.5582 193.518 72.2078C199.021 101.347 220.921 133.683 202.941 157.265C184.825 181.026 146.861 178.696 117.884 171.411C94.302 165.482 84.1281 140.351 67.0022 123.089C50.0066 105.959 22.1113 96.1923 19.4591 72.2078C16.6984 47.2427 38.6616 28.2891 54.35 8.67398C73.1938 -14.8864 87.7455 -52.2157 117.884 -50.8523Z" fill="url(#paint0_linear_1301_343)"/>
<path fill-rule="evenodd" clip-rule="evenodd" d="M149.576 -163.935C180.904 -173.162 213.738 -151.477 236.877 -128.43C260.06 -105.338 273.453 -73.8465 272.871 -41.1298C272.297 -8.9589 257.914 21.7881 233.82 43.1137C211.027 63.2882 179.792 71.6786 149.576 67.9983C122.461 64.6958 102.583 44.4873 83.6264 24.8203C65.1724 5.67447 40.1429 -14.8799 44.3917 -41.1298C48.5285 -66.6875 85.1595 -69.0413 102.002 -88.7047C122.066 -112.131 119.989 -155.221 149.576 -163.935Z" fill="url(#paint1_linear_1301_343)"/>
<path fill-rule="evenodd" clip-rule="evenodd" d="M-3.81924 -43.7439C25.9189 -52.6515 65.0727 -49.7148 83.7696 -24.9333C102.113 -0.619892 84.3375 33.2359 76.4561 62.6556C71.1969 82.2872 61.1049 98.8374 46.7561 113.231C32.3762 127.656 16.0127 138.539 -3.81924 143.181C-31.3142 149.616 -62.3173 160.542 -85.3034 144.14C-109.932 126.566 -124.456 91.8924 -116.67 62.6556C-109.46 35.5814 -71.4167 34.6642 -51.031 15.4439C-31.9421 -2.55381 -28.9515 -36.216 -3.81924 -43.7439Z" fill="#C4C4C4"/>
<path fill-rule="evenodd" clip-rule="evenodd" d="M-3.81924 -43.7439C25.9189 -52.6515 65.0727 -49.7148 83.7696 -24.9333C102.113 -0.619892 84.3375 33.2359 76.4561 62.6556C71.1969 82.2872 61.1049 98.8374 46.7561 113.231C32.3762 127.656 16.0127 138.539 -3.81924 143.181C-31.3142 149.616 -62.3173 160.542 -85.3034 144.14C-109.932 126.566 -124.456 91.8924 -116.67 62.6556C-109.46 35.5814 -71.4167 34.6642 -51.031 15.4439C-31.9421 -2.55381 -28.9515 -36.216 -3.81924 -43.7439Z" fill="url(#paint2_linear_1301_343)"/>
</g>
<defs>
<linearGradient id="paint0_linear_1301_343" x1="209.939" y1="136.54" x2="64.406" y2="10.4785" gradientUnits="userSpaceOnUse">
<stop stop-color="#EBAA7B"/>
<stop offset="1" stop-color="#B04A29"/>
</linearGradient>
<linearGradient id="paint1_linear_1301_343" x1="165.579" y1="-166.111" x2="108.687" y2="60.6273" gradientUnits="userSpaceOnUse">
<stop stop-color="#7BC9EB"/>
<stop offset="1" stop-color="#292FB0"/>
</linearGradient>
<linearGradient id="paint2_linear_1301_343" x1="3.05935" y1="142.902" x2="53.2982" y2="-50.3896" gradientUnits="userSpaceOnUse">
<stop stop-color="#FFDCEF"/>
<stop offset="1" stop-color="#FF5DB4"/>
</linearGradient>
</defs>
</svg>
