<svg width="251" height="194" viewBox="0 0 251 194" fill="none" xmlns="http://www.w3.org/2000/svg">
<g id="Frame 24">
<g id="Polygon 3">
<mask id="path-1-inside-1_417_41" fill="white">
<path d="M126 20C126 20 135.904 36.8895 142.25 47.7116C148.596 58.5336 152.154 64.6011 158.5 75.4231C164.846 86.2452 174.75 103.135 174.75 103.135L191 130.846L126 175L61 130.846L77.25 103.135C77.25 103.135 87.154 86.2452 93.5 75.4231C99.846 64.6011 110.238 47.7116 110.238 47.7116L126 20Z"/>
</mask>
<path d="M126 109.046L123.124 111.826L126 114.802L128.876 111.826L126 109.046ZM61 130.846C59.5561 134.577 59.5567 134.577 59.5574 134.577C59.5578 134.577 59.5587 134.578 59.5595 134.578C59.5613 134.579 59.5636 134.579 59.5665 134.581C59.5724 134.583 59.5807 134.586 59.5913 134.59C59.6126 134.598 59.6434 134.61 59.6834 134.625C59.7636 134.656 59.8808 134.701 60.0336 134.759C60.3392 134.875 60.7868 135.043 61.3634 135.256C62.5164 135.683 64.1858 136.29 66.2662 137.018C70.4246 138.472 76.2366 140.411 82.8557 142.352C95.9788 146.199 112.697 150.18 126 150.18V142.18C113.919 142.18 98.1371 138.495 85.1062 134.675C78.6483 132.782 72.9699 130.887 68.9071 129.466C66.8768 128.756 65.2529 128.166 64.1403 127.754C63.584 127.548 63.1557 127.387 62.8686 127.278C62.725 127.224 62.6167 127.182 62.5454 127.155C62.5097 127.141 62.4833 127.131 62.4663 127.125C62.4578 127.121 62.4517 127.119 62.4479 127.117C62.446 127.117 62.4448 127.116 62.4441 127.116C62.4438 127.116 62.4437 127.116 62.4435 127.116C62.4436 127.116 62.4439 127.116 61 130.846ZM126 150.18C139.303 150.18 156.021 146.199 169.144 142.352C175.763 140.411 181.575 138.472 185.734 137.018C187.814 136.29 189.484 135.683 190.637 135.256C191.213 135.043 191.661 134.875 191.966 134.759C192.119 134.701 192.236 134.656 192.317 134.625C192.357 134.61 192.387 134.598 192.409 134.59C192.419 134.586 192.428 134.583 192.433 134.581C192.436 134.579 192.439 134.579 192.44 134.578C192.441 134.578 192.442 134.577 192.443 134.577C192.443 134.577 192.444 134.577 191 130.846C189.556 127.116 189.556 127.116 189.556 127.116C189.556 127.116 189.556 127.116 189.556 127.116C189.555 127.116 189.554 127.117 189.552 127.117C189.548 127.119 189.542 127.121 189.534 127.125C189.517 127.131 189.49 127.141 189.455 127.155C189.383 127.182 189.275 127.224 189.131 127.278C188.844 127.387 188.416 127.548 187.86 127.754C186.747 128.166 185.123 128.756 183.093 129.466C179.03 130.887 173.352 132.782 166.894 134.675C153.863 138.495 138.081 142.18 126 142.18V150.18ZM126 175C130 175 130 175 130 175C130 175 130 175 130 174.999C130 174.999 130 174.999 130 174.999C130 174.999 130 174.998 130 174.998C130 174.998 130 174.997 130 174.997C130 174.996 130 174.996 130 174.995C130 174.995 130 174.994 130 174.994C130 174.993 130 174.992 130 174.992C130 174.991 130 174.99 130 174.989C130 174.989 130 174.988 130 174.987C130 174.986 130 174.985 130 174.984C130 174.983 130 174.982 130 174.981C130 174.98 130 174.979 130 174.978C130 174.977 130 174.975 130 174.974C130 174.973 130 174.972 130 174.97C130 174.969 130 174.968 130 174.966C130 174.965 130 174.963 130 174.962C130 174.96 130 174.959 130 174.957C130 174.956 130 174.954 130 174.952C130 174.951 130 174.949 130 174.947C130 174.946 130 174.944 130 174.942C130 174.94 130 174.938 130 174.936C130 174.934 130 174.932 130 174.93C130 174.928 130 174.926 130 174.924C130 174.922 130 174.92 130 174.918C130 174.916 130 174.913 130 174.911C130 174.909 130 174.907 130 174.904C130 174.902 130 174.9 130 174.897C130 174.895 130 174.892 130 174.89C130 174.887 130 174.885 130 174.882C130 174.879 130 174.877 130 174.874C130 174.871 130 174.869 130 174.866C130 174.863 130 174.86 130 174.857C130 174.854 130 174.852 130 174.849C130 174.846 130 174.843 130 174.84C130 174.837 130 174.833 130 174.83C130 174.827 130 174.824 130 174.821C130 174.818 130 174.814 130 174.811C130 174.808 130 174.804 130 174.801C130 174.798 130 174.794 130 174.791C130 174.787 130 174.784 130 174.78C130 174.777 130 174.773 130 174.77C130 174.766 130 174.762 130 174.759C130 174.755 130 174.751 130 174.747C130 174.743 130 174.74 130 174.736C130 174.732 130 174.728 130 174.724C130 174.72 130 174.716 130 174.712C130 174.708 130 174.704 130 174.7C130 174.695 130 174.691 130 174.687C130 174.683 130 174.679 130 174.674C130 174.67 130 174.666 130 174.661C130 174.657 130 174.652 130 174.648C130 174.643 130 174.639 130 174.634C130 174.63 130 174.625 130 174.621C130 174.616 130 174.611 130 174.607C130 174.602 130 174.597 130 174.592C130 174.587 130 174.583 130 174.578C130 174.573 130 174.568 130 174.563C130 174.558 130 174.553 130 174.548C130 174.543 130 174.538 130 174.533C130 174.527 130 174.522 130 174.517C130 174.512 130 174.507 130 174.501C130 174.496 130 174.491 130 174.485C130 174.48 130 174.474 130 174.469C130 174.463 130 174.458 130 174.452C130 174.447 130 174.441 130 174.436C130 174.43 130 174.424 130 174.419C130 174.413 130 174.407 130 174.401C130 174.395 130 174.39 130 174.384C130 174.378 130 174.372 130 174.366C130 174.36 130 174.354 130 174.348C130 174.342 130 174.336 130 174.33C130 174.323 130 174.317 130 174.311C130 174.305 130 174.299 130 174.292C130 174.286 130 174.28 130 174.273C130 174.267 130 174.261 130 174.254C130 174.248 130 174.241 130 174.235C130 174.228 130 174.221 130 174.215C130 174.208 130 174.202 130 174.195C130 174.188 130 174.181 130 174.175C130 174.168 130 174.161 130 174.154C130 174.147 130 174.14 130 174.133C130 174.126 130 174.12 130 174.112C130 174.105 130 174.098 130 174.091C130 174.084 130 174.077 130 174.07C130 174.063 130 174.055 130 174.048C130 174.041 130 174.034 130 174.026C130 174.019 130 174.011 130 174.004C130 173.997 130 173.989 130 173.982C130 173.974 130 173.967 130 173.959C130 173.951 130 173.944 130 173.936C130 173.928 130 173.921 130 173.913C130 173.905 130 173.897 130 173.89C130 173.882 130 173.874 130 173.866C130 173.858 130 173.85 130 173.842C130 173.834 130 173.826 130 173.818C130 173.81 130 173.802 130 173.794C130 173.785 130 173.777 130 173.769C130 173.761 130 173.753 130 173.744C130 173.736 130 173.728 130 173.719C130 173.711 130 173.702 130 173.694C130 173.685 130 173.677 130 173.668C130 173.66 130 173.651 130 173.643C130 173.634 130 173.625 130 173.617C130 173.608 130 173.599 130 173.59C130 173.582 130 173.573 130 173.564C130 173.555 130 173.546 130 173.537C130 173.528 130 173.519 130 173.51C130 173.501 130 173.492 130 173.483C130 173.474 130 173.465 130 173.456C130 173.446 130 173.437 130 173.428C130 173.419 130 173.409 130 173.4C130 173.391 130 173.381 130 173.372C130 173.362 130 173.353 130 173.343C130 173.334 130 173.324 130 173.315C130 173.305 130 173.296 130 173.286C130 173.276 130 173.267 130 173.257C130 173.247 130 173.237 130 173.228C130 173.218 130 173.208 130 173.198C130 173.188 130 173.178 130 173.168C130 173.158 130 173.148 130 173.138C130 173.128 130 173.118 130 173.108C130 173.098 130 173.088 130 173.078C130 173.067 130 173.057 130 173.047C130 173.037 130 173.026 130 173.016C130 173.006 130 172.995 130 172.985C130 172.974 130 172.964 130 172.953C130 172.943 130 172.932 130 172.922C130 172.911 130 172.9 130 172.89C130 172.879 130 172.868 130 172.858C130 172.847 130 172.836 130 172.825C130 172.815 130 172.804 130 172.793C130 172.782 130 172.771 130 172.76C130 172.749 130 172.738 130 172.727C130 172.716 130 172.705 130 172.694C130 172.683 130 172.671 130 172.66C130 172.649 130 172.638 130 172.627C130 172.615 130 172.604 130 172.593C130 172.581 130 172.57 130 172.558C130 172.547 130 172.536 130 172.524C130 172.513 130 172.501 130 172.489C130 172.478 130 172.466 130 172.455C130 172.443 130 172.431 130 172.42C130 172.408 130 172.396 130 172.384C130 172.372 130 172.361 130 172.349C130 172.337 130 172.325 130 172.313C130 172.301 130 172.289 130 172.277C130 172.265 130 172.253 130 172.241C130 172.229 130 172.217 130 172.204C130 172.192 130 172.18 130 172.168C130 172.155 130 172.143 130 172.131C130 172.118 130 172.106 130 172.094C130 172.081 130 172.069 130 172.056C130 172.044 130 172.031 130 172.019C130 172.006 130 171.994 130 171.981C130 171.968 130 171.956 130 171.943C130 171.93 130 171.918 130 171.905C130 171.892 130 171.879 130 171.866C130 171.853 130 171.841 130 171.828C130 171.815 130 171.802 130 171.789C130 171.776 130 171.763 130 171.75C130 171.737 130 171.723 130 171.71C130 171.697 130 171.684 130 171.671C130 171.657 130 171.644 130 171.631C130 171.618 130 171.604 130 171.591C130 171.577 130 171.564 130 171.551C130 171.537 130 171.524 130 171.51C130 171.497 130 171.483 130 171.469C130 171.456 130 171.442 130 171.429C130 171.415 130 171.401 130 171.387C130 171.374 130 171.36 130 171.346C130 171.332 130 171.318 130 171.305C130 171.291 130 171.277 130 171.263C130 171.249 130 171.235 130 171.221C130 171.207 130 171.193 130 171.179C130 171.164 130 171.15 130 171.136C130 171.122 130 171.108 130 171.094C130 171.079 130 171.065 130 171.051C130 171.036 130 171.022 130 171.008C130 170.993 130 170.979 130 170.964C130 170.95 130 170.935 130 170.921C130 170.906 130 170.892 130 170.877C130 170.862 130 170.848 130 170.833C130 170.818 130 170.804 130 170.789C130 170.774 130 170.759 130 170.744C130 170.73 130 170.715 130 170.7C130 170.685 130 170.67 130 170.655C130 170.64 130 170.625 130 170.61C130 170.595 130 170.58 130 170.565C130 170.55 130 170.534 130 170.519C130 170.504 130 170.489 130 170.474C130 170.458 130 170.443 130 170.428C130 170.412 130 170.397 130 170.382C130 170.366 130 170.351 130 170.335C130 170.32 130 170.304 130 170.289C130 170.273 130 170.258 130 170.242C130 170.226 130 170.211 130 170.195C130 170.179 130 170.164 130 170.148C130 170.132 130 170.116 130 170.1C130 170.085 130 170.069 130 170.053C130 170.037 130 170.021 130 170.005C130 169.989 130 169.973 130 169.957C130 169.941 130 169.925 130 169.909C130 169.893 130 169.876 130 169.86C130 169.844 130 169.828 130 169.812C130 169.795 130 169.779 130 169.763C130 169.746 130 169.73 130 169.714C130 169.697 130 169.681 130 169.664C130 169.648 130 169.631 130 169.615C130 169.598 130 169.582 130 169.565C130 169.549 130 169.532 130 169.515C130 169.499 130 169.482 130 169.465C130 169.448 130 169.432 130 169.415C130 169.398 130 169.381 130 169.364C130 169.347 130 169.33 130 169.313C130 169.296 130 169.28 130 169.262C130 169.245 130 169.228 130 169.211C130 169.194 130 169.177 130 169.16C130 169.143 130 169.126 130 169.108C130 169.091 130 169.074 130 169.057C130 169.039 130 169.022 130 169.005C130 168.987 130 168.97 130 168.952C130 168.935 130 168.917 130 168.9C130 168.882 130 168.865 130 168.847C130 168.83 130 168.812 130 168.794C130 168.777 130 168.759 130 168.741C130 168.724 130 168.706 130 168.688C130 168.67 130 168.653 130 168.635C130 168.617 130 168.599 130 168.581C130 168.563 130 168.545 130 168.527C130 168.509 130 168.491 130 168.473C130 168.455 130 168.437 130 168.419C130 168.401 130 168.383 130 168.364C130 168.346 130 168.328 130 168.31C130 168.292 130 168.273 130 168.255C130 168.237 130 168.218 130 168.2C130 168.181 130 168.163 130 168.145C130 168.126 130 168.108 130 168.089C130 168.071 130 168.052 130 168.033C130 168.015 130 167.996 130 167.978C130 167.959 130 167.94 130 167.921C130 167.903 130 167.884 130 167.865C130 167.846 130 167.828 130 167.809C130 167.79 130 167.771 130 167.752C130 167.733 130 167.714 130 167.695C130 167.676 130 167.657 130 167.638C130 167.619 130 167.6 130 167.581C130 167.562 130 167.542 130 167.523C130 167.504 130 167.485 130 167.466C130 167.446 130 167.427 130 167.408C130 167.388 130 167.369 130 167.35C130 167.33 130 167.311 130 167.291C130 167.272 130 167.252 130 167.233C130 167.213 130 167.194 130 167.174C130 167.155 130 167.135 130 167.115C130 167.096 130 167.076 130 167.056C130 167.036 130 167.017 130 166.997C130 166.977 130 166.957 130 166.937C130 166.918 130 166.898 130 166.878C130 166.858 130 166.838 130 166.818C130 166.798 130 166.778 130 166.758C130 166.738 130 166.718 130 166.698C130 166.677 130 166.657 130 166.637C130 166.617 130 166.597 130 166.576C130 166.556 130 166.536 130 166.516C130 166.495 130 166.475 130 166.455C130 166.434 130 166.414 130 166.393C130 166.373 130 166.352 130 166.332C130 166.311 130 166.291 130 166.27C130 166.25 130 166.229 130 166.208C130 166.188 130 166.167 130 166.146C130 166.126 130 166.105 130 166.084C130 166.064 130 166.043 130 166.022C130 166.001 130 165.98 130 165.959C130 165.938 130 165.917 130 165.897C130 165.876 130 165.855 130 165.834C130 165.813 130 165.791 130 165.77C130 165.749 130 165.728 130 165.707C130 165.686 130 165.665 130 165.643C130 165.622 130 165.601 130 165.58C130 165.558 130 165.537 130 165.516C130 165.494 130 165.473 130 165.452C130 165.43 130 165.409 130 165.387C130 165.366 130 165.344 130 165.323C130 165.301 130 165.28 130 165.258C130 165.237 130 165.215 130 165.193C130 165.172 130 165.15 130 165.128C130 165.106 130 165.085 130 165.063C130 165.041 130 165.019 130 164.998C130 164.976 130 164.954 130 164.932C130 164.91 130 164.888 130 164.866C130 164.844 130 164.822 130 164.8C130 164.778 130 164.756 130 164.734C130 164.712 130 164.69 130 164.667C130 164.645 130 164.623 130 164.601C130 164.579 130 164.556 130 164.534C130 164.512 130 164.489 130 164.467C130 164.445 130 164.422 130 164.4C130 164.378 130 164.355 130 164.333C130 164.31 130 164.288 130 164.265C130 164.243 130 164.22 130 164.197C130 164.175 130 164.152 130 164.13C130 164.107 130 164.084 130 164.062C130 164.039 130 164.016 130 163.993C130 163.971 130 163.948 130 163.925C130 163.902 130 163.879 130 163.856C130 163.833 130 163.81 130 163.787C130 163.764 130 163.741 130 163.718C130 163.695 130 163.672 130 163.649C130 163.626 130 163.603 130 163.58C130 163.557 130 163.534 130 163.51C130 163.487 130 163.464 130 163.441C130 163.417 130 163.394 130 163.371C130 163.347 130 163.324 130 163.301C130 163.277 130 163.254 130 163.23C130 163.207 130 163.183 130 163.16C130 163.136 130 163.113 130 163.089C130 163.066 130 163.042 130 163.019C130 162.995 130 162.971 130 162.948C130 162.924 130 162.9 130 162.876C130 162.853 130 162.829 130 162.805C130 162.781 130 162.757 130 162.733C130 162.71 130 162.686 130 162.662C130 162.638 130 162.614 130 162.59C130 162.566 130 162.542 130 162.518C130 162.494 130 162.47 130 162.446C130 162.421 130 162.397 130 162.373C130 162.349 130 162.325 130 162.3C130 162.276 130 162.252 130 162.228C130 162.203 130 162.179 130 162.155C130 162.13 130 162.106 130 162.082C130 162.057 130 162.033 130 162.008C130 161.984 130 161.959 130 161.935C130 161.91 130 161.886 130 161.861C130 161.837 130 161.812 130 161.787C130 161.763 130 161.738 130 161.713C130 161.689 130 161.664 130 161.639C130 161.614 130 161.589 130 161.565C130 161.54 130 161.515 130 161.49C130 161.465 130 161.44 130 161.415C130 161.39 130 161.365 130 161.34C130 161.315 130 161.29 130 161.265C130 161.24 130 161.215 130 161.19C130 161.165 130 161.14 130 161.115C130 161.09 130 161.064 130 161.039C130 161.014 130 160.989 130 160.963C130 160.938 130 160.913 130 160.887C130 160.862 130 160.837 130 160.811C130 160.786 130 160.76 130 160.735C130 160.709 130 160.684 130 160.658C130 160.633 130 160.607 130 160.582C130 160.556 130 160.531 130 160.505C130 160.479 130 160.454 130 160.428C130 160.402 130 160.377 130 160.351C130 160.325 130 160.299 130 160.274C130 160.248 130 160.222 130 160.196C130 160.17 130 160.144 130 160.118C130 160.092 130 160.066 130 160.04C130 160.015 130 159.989 130 159.962C130 159.936 130 159.91 130 159.884C130 159.858 130 159.832 130 159.806C130 159.78 130 159.754 130 159.727C130 159.701 130 159.675 130 159.649C130 159.622 130 159.596 130 159.57C130 159.544 130 159.517 130 159.491C130 159.464 130 159.438 130 159.412C130 159.385 130 159.359 130 159.332C130 159.306 130 159.279 130 159.253C130 159.226 130 159.2 130 159.173C130 159.146 130 159.12 130 159.093C130 159.067 130 159.04 130 159.013C130 158.986 130 158.96 130 158.933C130 158.906 130 158.879 130 158.853C130 158.826 130 158.799 130 158.772C130 158.745 130 158.718 130 158.691C130 158.664 130 158.637 130 158.61C130 158.583 130 158.556 130 158.529C130 158.502 130 158.475 130 158.448C130 158.421 130 158.394 130 158.367C130 158.34 130 158.313 130 158.285C130 158.258 130 158.231 130 158.204C130 158.176 130 158.149 130 158.122C130 158.094 130 158.067 130 158.04C130 158.012 130 157.985 130 157.958C130 157.93 130 157.903 130 157.875C130 157.848 130 157.82 130 157.793C130 157.765 130 157.738 130 157.71C130 157.682 130 157.655 130 157.627C130 157.6 130 157.572 130 157.544C130 157.516 130 157.489 130 157.461C130 157.433 130 157.405 130 157.378C130 157.35 130 157.322 130 157.294C130 157.266 130 157.238 130 157.211C130 157.183 130 157.155 130 157.127C130 157.099 130 157.071 130 157.043C130 157.015 130 156.987 130 156.959C130 156.931 130 156.902 130 156.874C130 156.846 130 156.818 130 156.79C130 156.762 130 156.733 130 156.705C130 156.677 130 156.649 130 156.62C130 156.592 130 156.564 130 156.536C130 156.507 130 156.479 130 156.45C130 156.422 130 156.394 130 156.365C130 156.337 130 156.308 130 156.28C130 156.251 130 156.223 130 156.194C130 156.166 130 156.137 130 156.109C130 156.08 130 156.051 130 156.023C130 155.994 130 155.965 130 155.937C130 155.908 130 155.879 130 155.85C130 155.822 130 155.793 130 155.764C130 155.735 130 155.706 130 155.678C130 155.649 130 155.62 130 155.591C130 155.562 130 155.533 130 155.504C130 155.475 130 155.446 130 155.417C130 155.388 130 155.359 130 155.33C130 155.301 130 155.272 130 155.243C130 155.214 130 155.184 130 155.155C130 155.126 130 155.097 130 155.068C130 155.038 130 155.009 130 154.98C130 154.951 130 154.921 130 154.892C130 154.863 130 154.833 130 154.804C130 154.775 130 154.745 130 154.716C130 154.686 130 154.657 130 154.627C130 154.598 130 154.568 130 154.539C130 154.509 130 154.48 130 154.45C130 154.421 130 154.391 130 154.361C130 154.332 130 154.302 130 154.272C130 154.243 130 154.213 130 154.183C130 154.153 130 154.124 130 154.094C130 154.064 130 154.034 130 154.004C130 153.975 130 153.945 130 153.915C130 153.885 130 153.855 130 153.825C130 153.795 130 153.765 130 153.735C130 153.705 130 153.675 130 153.645C130 153.615 130 153.585 130 153.555C130 153.525 130 153.495 130 153.465C130 153.435 130 153.404 130 153.374C130 153.344 130 153.314 130 153.284C130 153.253 130 153.223 130 153.193C130 153.162 130 153.132 130 153.102C130 153.071 130 153.041 130 153.011C130 152.98 130 152.95 130 152.92C130 152.889 130 152.859 130 152.828C130 152.798 130 152.767 130 152.737C130 152.706 130 152.675 130 152.645C130 152.614 130 152.584 130 152.553C130 152.522 130 152.492 130 152.461C130 152.43 130 152.4 130 152.369C130 152.338 130 152.308 130 152.277C130 152.246 130 152.215 130 152.184C130 152.153 130 152.123 130 152.092C130 152.061 130 152.03 130 151.999C130 151.968 130 151.937 130 151.906C130 151.875 130 151.844 130 151.813C130 151.782 130 151.751 130 151.72C130 151.689 130 151.658 130 151.627C130 151.596 130 151.565 130 151.533C130 151.502 130 151.471 130 151.44C130 151.409 130 151.377 130 151.346C130 151.315 130 151.284 130 151.252C130 151.221 130 151.19 130 151.158C130 151.127 130 151.095 130 151.064C130 151.033 130 151.001 130 150.97C130 150.938 130 150.907 130 150.875C130 150.844 130 150.812 130 150.781C130 150.749 130 150.718 130 150.686C130 150.654 130 150.623 130 150.591C130 150.56 130 150.528 130 150.496C130 150.464 130 150.433 130 150.401C130 150.369 130 150.338 130 150.306C130 150.274 130 150.242 130 150.21C130 150.178 130 150.147 130 150.115C130 150.083 130 150.051 130 150.019C130 149.987 130 149.955 130 149.923C130 149.891 130 149.859 130 149.827C130 149.795 130 149.763 130 149.731C130 149.699 130 149.667 130 149.635C130 149.603 130 149.571 130 149.538C130 149.506 130 149.474 130 149.442C130 149.41 130 149.377 130 149.345C130 149.313 130 149.281 130 149.248C130 149.216 130 149.184 130 149.151C130 149.119 130 149.087 130 149.054C130 149.022 130 148.99 130 148.957C130 148.925 130 148.892 130 148.86C130 148.827 130 148.795 130 148.762C130 148.73 130 148.697 130 148.665C130 148.632 130 148.599 130 148.567C130 148.534 130 148.502 130 148.469C130 148.436 130 148.404 130 148.371C130 148.338 130 148.305 130 148.273C130 148.24 130 148.207 130 148.174C130 148.142 130 148.109 130 148.076C130 148.043 130 148.01 130 147.977C130 147.944 130 147.912 130 147.879C130 147.846 130 147.813 130 147.78C130 147.747 130 147.714 130 147.681C130 147.648 130 147.615 130 147.582C130 147.549 130 147.515 130 147.482C130 147.449 130 147.416 130 147.383C130 147.35 130 147.317 130 147.283C130 147.25 130 147.217 130 147.184C130 147.151 130 147.117 130 147.084C130 147.051 130 147.017 130 146.984C130 146.951 130 146.917 130 146.884C130 146.851 130 146.817 130 146.784C130 146.75 130 146.717 130 146.684C130 146.65 130 146.617 130 146.583C130 146.55 130 146.516 130 146.482C130 146.449 130 146.415 130 146.382C130 146.348 130 146.315 130 146.281C130 146.247 130 146.214 130 146.18H122C122 146.214 122 146.247 122 146.281C122 146.315 122 146.348 122 146.382C122 146.415 122 146.449 122 146.482C122 146.516 122 146.55 122 146.583C122 146.617 122 146.65 122 146.684C122 146.717 122 146.75 122 146.784C122 146.817 122 146.851 122 146.884C122 146.917 122 146.951 122 146.984C122 147.017 122 147.051 122 147.084C122 147.117 122 147.151 122 147.184C122 147.217 122 147.25 122 147.283C122 147.317 122 147.35 122 147.383C122 147.416 122 147.449 122 147.482C122 147.515 122 147.549 122 147.582C122 147.615 122 147.648 122 147.681C122 147.714 122 147.747 122 147.78C122 147.813 122 147.846 122 147.879C122 147.912 122 147.944 122 147.977C122 148.01 122 148.043 122 148.076C122 148.109 122 148.142 122 148.174C122 148.207 122 148.24 122 148.273C122 148.305 122 148.338 122 148.371C122 148.404 122 148.436 122 148.469C122 148.502 122 148.534 122 148.567C122 148.599 122 148.632 122 148.665C122 148.697 122 148.73 122 148.762C122 148.795 122 148.827 122 148.86C122 148.892 122 148.925 122 148.957C122 148.99 122 149.022 122 149.054C122 149.087 122 149.119 122 149.151C122 149.184 122 149.216 122 149.248C122 149.281 122 149.313 122 149.345C122 149.377 122 149.41 122 149.442C122 149.474 122 149.506 122 149.538C122 149.571 122 149.603 122 149.635C122 149.667 122 149.699 122 149.731C122 149.763 122 149.795 122 149.827C122 149.859 122 149.891 122 149.923C122 149.955 122 149.987 122 150.019C122 150.051 122 150.083 122 150.115C122 150.147 122 150.178 122 150.21C122 150.242 122 150.274 122 150.306C122 150.338 122 150.369 122 150.401C122 150.433 122 150.464 122 150.496C122 150.528 122 150.56 122 150.591C122 150.623 122 150.654 122 150.686C122 150.718 122 150.749 122 150.781C122 150.812 122 150.844 122 150.875C122 150.907 122 150.938 122 150.97C122 151.001 122 151.033 122 151.064C122 151.095 122 151.127 122 151.158C122 151.19 122 151.221 122 151.252C122 151.284 122 151.315 122 151.346C122 151.377 122 151.409 122 151.44C122 151.471 122 151.502 122 151.533C122 151.565 122 151.596 122 151.627C122 151.658 122 151.689 122 151.72C122 151.751 122 151.782 122 151.813C122 151.844 122 151.875 122 151.906C122 151.937 122 151.968 122 151.999C122 152.03 122 152.061 122 152.092C122 152.123 122 152.153 122 152.184C122 152.215 122 152.246 122 152.277C122 152.308 122 152.338 122 152.369C122 152.4 122 152.43 122 152.461C122 152.492 122 152.522 122 152.553C122 152.584 122 152.614 122 152.645C122 152.675 122 152.706 122 152.737C122 152.767 122 152.798 122 152.828C122 152.859 122 152.889 122 152.92C122 152.95 122 152.98 122 153.011C122 153.041 122 153.071 122 153.102C122 153.132 122 153.162 122 153.193C122 153.223 122 153.253 122 153.284C122 153.314 122 153.344 122 153.374C122 153.404 122 153.435 122 153.465C122 153.495 122 153.525 122 153.555C122 153.585 122 153.615 122 153.645C122 153.675 122 153.705 122 153.735C122 153.765 122 153.795 122 153.825C122 153.855 122 153.885 122 153.915C122 153.945 122 153.975 122 154.004C122 154.034 122 154.064 122 154.094C122 154.124 122 154.153 122 154.183C122 154.213 122 154.243 122 154.272C122 154.302 122 154.332 122 154.361C122 154.391 122 154.421 122 154.45C122 154.48 122 154.509 122 154.539C122 154.568 122 154.598 122 154.627C122 154.657 122 154.686 122 154.716C122 154.745 122 154.775 122 154.804C122 154.833 122 154.863 122 154.892C122 154.921 122 154.951 122 154.98C122 155.009 122 155.038 122 155.068C122 155.097 122 155.126 122 155.155C122 155.184 122 155.214 122 155.243C122 155.272 122 155.301 122 155.33C122 155.359 122 155.388 122 155.417C122 155.446 122 155.475 122 155.504C122 155.533 122 155.562 122 155.591C122 155.62 122 155.649 122 155.678C122 155.706 122 155.735 122 155.764C122 155.793 122 155.822 122 155.85C122 155.879 122 155.908 122 155.937C122 155.965 122 155.994 122 156.023C122 156.051 122 156.08 122 156.109C122 156.137 122 156.166 122 156.194C122 156.223 122 156.251 122 156.28C122 156.308 122 156.337 122 156.365C122 156.394 122 156.422 122 156.45C122 156.479 122 156.507 122 156.536C122 156.564 122 156.592 122 156.62C122 156.649 122 156.677 122 156.705C122 156.733 122 156.762 122 156.79C122 156.818 122 156.846 122 156.874C122 156.902 122 156.931 122 156.959C122 156.987 122 157.015 122 157.043C122 157.071 122 157.099 122 157.127C122 157.155 122 157.183 122 157.211C122 157.238 122 157.266 122 157.294C122 157.322 122 157.35 122 157.378C122 157.405 122 157.433 122 157.461C122 157.489 122 157.516 122 157.544C122 157.572 122 157.6 122 157.627C122 157.655 122 157.682 122 157.71C122 157.738 122 157.765 122 157.793C122 157.82 122 157.848 122 157.875C122 157.903 122 157.93 122 157.958C122 157.985 122 158.012 122 158.04C122 158.067 122 158.094 122 158.122C122 158.149 122 158.176 122 158.204C122 158.231 122 158.258 122 158.285C122 158.313 122 158.34 122 158.367C122 158.394 122 158.421 122 158.448C122 158.475 122 158.502 122 158.529C122 158.556 122 158.583 122 158.61C122 158.637 122 158.664 122 158.691C122 158.718 122 158.745 122 158.772C122 158.799 122 158.826 122 158.853C122 158.879 122 158.906 122 158.933C122 158.96 122 158.986 122 159.013C122 159.04 122 159.067 122 159.093C122 159.12 122 159.146 122 159.173C122 159.2 122 159.226 122 159.253C122 159.279 122 159.306 122 159.332C122 159.359 122 159.385 122 159.412C122 159.438 122 159.464 122 159.491C122 159.517 122 159.544 122 159.57C122 159.596 122 159.622 122 159.649C122 159.675 122 159.701 122 159.727C122 159.754 122 159.78 122 159.806C122 159.832 122 159.858 122 159.884C122 159.91 122 159.936 122 159.962C122 159.989 122 160.015 122 160.04C122 160.066 122 160.092 122 160.118C122 160.144 122 160.17 122 160.196C122 160.222 122 160.248 122 160.274C122 160.299 122 160.325 122 160.351C122 160.377 122 160.402 122 160.428C122 160.454 122 160.479 122 160.505C122 160.531 122 160.556 122 160.582C122 160.607 122 160.633 122 160.658C122 160.684 122 160.709 122 160.735C122 160.76 122 160.786 122 160.811C122 160.837 122 160.862 122 160.887C122 160.913 122 160.938 122 160.963C122 160.989 122 161.014 122 161.039C122 161.064 122 161.09 122 161.115C122 161.14 122 161.165 122 161.19C122 161.215 122 161.24 122 161.265C122 161.29 122 161.315 122 161.34C122 161.365 122 161.39 122 161.415C122 161.44 122 161.465 122 161.49C122 161.515 122 161.54 122 161.565C122 161.589 122 161.614 122 161.639C122 161.664 122 161.689 122 161.713C122 161.738 122 161.763 122 161.787C122 161.812 122 161.837 122 161.861C122 161.886 122 161.91 122 161.935C122 161.959 122 161.984 122 162.008C122 162.033 122 162.057 122 162.082C122 162.106 122 162.13 122 162.155C122 162.179 122 162.203 122 162.228C122 162.252 122 162.276 122 162.3C122 162.325 122 162.349 122 162.373C122 162.397 122 162.421 122 162.446C122 162.47 122 162.494 122 162.518C122 162.542 122 162.566 122 162.59C122 162.614 122 162.638 122 162.662C122 162.686 122 162.71 122 162.733C122 162.757 122 162.781 122 162.805C122 162.829 122 162.853 122 162.876C122 162.9 122 162.924 122 162.948C122 162.971 122 162.995 122 163.019C122 163.042 122 163.066 122 163.089C122 163.113 122 163.136 122 163.16C122 163.183 122 163.207 122 163.23C122 163.254 122 163.277 122 163.301C122 163.324 122 163.347 122 163.371C122 163.394 122 163.417 122 163.441C122 163.464 122 163.487 122 163.51C122 163.534 122 163.557 122 163.58C122 163.603 122 163.626 122 163.649C122 163.672 122 163.695 122 163.718C122 163.741 122 163.764 122 163.787C122 163.81 122 163.833 122 163.856C122 163.879 122 163.902 122 163.925C122 163.948 122 163.971 122 163.993C122 164.016 122 164.039 122 164.062C122 164.084 122 164.107 122 164.13C122 164.152 122 164.175 122 164.197C122 164.22 122 164.243 122 164.265C122 164.288 122 164.31 122 164.333C122 164.355 122 164.378 122 164.4C122 164.422 122 164.445 122 164.467C122 164.489 122 164.512 122 164.534C122 164.556 122 164.579 122 164.601C122 164.623 122 164.645 122 164.667C122 164.69 122 164.712 122 164.734C122 164.756 122 164.778 122 164.8C122 164.822 122 164.844 122 164.866C122 164.888 122 164.91 122 164.932C122 164.954 122 164.976 122 164.998C122 165.019 122 165.041 122 165.063C122 165.085 122 165.106 122 165.128C122 165.15 122 165.172 122 165.193C122 165.215 122 165.237 122 165.258C122 165.28 122 165.301 122 165.323C122 165.344 122 165.366 122 165.387C122 165.409 122 165.43 122 165.452C122 165.473 122 165.494 122 165.516C122 165.537 122 165.558 122 165.58C122 165.601 122 165.622 122 165.643C122 165.665 122 165.686 122 165.707C122 165.728 122 165.749 122 165.77C122 165.791 122 165.813 122 165.834C122 165.855 122 165.876 122 165.897C122 165.917 122 165.938 122 165.959C122 165.98 122 166.001 122 166.022C122 166.043 122 166.064 122 166.084C122 166.105 122 166.126 122 166.146C122 166.167 122 166.188 122 166.208C122 166.229 122 166.25 122 166.27C122 166.291 122 166.311 122 166.332C122 166.352 122 166.373 122 166.393C122 166.414 122 166.434 122 166.455C122 166.475 122 166.495 122 166.516C122 166.536 122 166.556 122 166.576C122 166.597 122 166.617 122 166.637C122 166.657 122 166.677 122 166.698C122 166.718 122 166.738 122 166.758C122 166.778 122 166.798 122 166.818C122 166.838 122 166.858 122 166.878C122 166.898 122 166.918 122 166.937C122 166.957 122 166.977 122 166.997C122 167.017 122 167.036 122 167.056C122 167.076 122 167.096 122 167.115C122 167.135 122 167.155 122 167.174C122 167.194 122 167.213 122 167.233C122 167.252 122 167.272 122 167.291C122 167.311 122 167.33 122 167.35C122 167.369 122 167.388 122 167.408C122 167.427 122 167.446 122 167.466C122 167.485 122 167.504 122 167.523C122 167.542 122 167.562 122 167.581C122 167.6 122 167.619 122 167.638C122 167.657 122 167.676 122 167.695C122 167.714 122 167.733 122 167.752C122 167.771 122 167.79 122 167.809C122 167.828 122 167.846 122 167.865C122 167.884 122 167.903 122 167.921C122 167.94 122 167.959 122 167.978C122 167.996 122 168.015 122 168.033C122 168.052 122 168.071 122 168.089C122 168.108 122 168.126 122 168.145C122 168.163 122 168.181 122 168.2C122 168.218 122 168.237 122 168.255C122 168.273 122 168.292 122 168.31C122 168.328 122 168.346 122 168.364C122 168.383 122 168.401 122 168.419C122 168.437 122 168.455 122 168.473C122 168.491 122 168.509 122 168.527C122 168.545 122 168.563 122 168.581C122 168.599 122 168.617 122 168.635C122 168.653 122 168.67 122 168.688C122 168.706 122 168.724 122 168.741C122 168.759 122 168.777 122 168.794C122 168.812 122 168.83 122 168.847C122 168.865 122 168.882 122 168.9C122 168.917 122 168.935 122 168.952C122 168.97 122 168.987 122 169.005C122 169.022 122 169.039 122 169.057C122 169.074 122 169.091 122 169.108C122 169.126 122 169.143 122 169.16C122 169.177 122 169.194 122 169.211C122 169.228 122 169.245 122 169.262C122 169.28 122 169.296 122 169.313C122 169.33 122 169.347 122 169.364C122 169.381 122 169.398 122 169.415C122 169.432 122 169.448 122 169.465C122 169.482 122 169.499 122 169.515C122 169.532 122 169.549 122 169.565C122 169.582 122 169.598 122 169.615C122 169.631 122 169.648 122 169.664C122 169.681 122 169.697 122 169.714C122 169.73 122 169.746 122 169.763C122 169.779 122 169.795 122 169.812C122 169.828 122 169.844 122 169.86C122 169.876 122 169.893 122 169.909C122 169.925 122 169.941 122 169.957C122 169.973 122 169.989 122 170.005C122 170.021 122 170.037 122 170.053C122 170.069 122 170.085 122 170.1C122 170.116 122 170.132 122 170.148C122 170.164 122 170.179 122 170.195C122 170.211 122 170.226 122 170.242C122 170.258 122 170.273 122 170.289C122 170.304 122 170.32 122 170.335C122 170.351 122 170.366 122 170.382C122 170.397 122 170.412 122 170.428C122 170.443 122 170.458 122 170.474C122 170.489 122 170.504 122 170.519C122 170.534 122 170.55 122 170.565C122 170.58 122 170.595 122 170.61C122 170.625 122 170.64 122 170.655C122 170.67 122 170.685 122 170.7C122 170.715 122 170.73 122 170.744C122 170.759 122 170.774 122 170.789C122 170.804 122 170.818 122 170.833C122 170.848 122 170.862 122 170.877C122 170.892 122 170.906 122 170.921C122 170.935 122 170.95 122 170.964C122 170.979 122 170.993 122 171.008C122 171.022 122 171.036 122 171.051C122 171.065 122 171.079 122 171.094C122 171.108 122 171.122 122 171.136C122 171.15 122 171.164 122 171.179C122 171.193 122 171.207 122 171.221C122 171.235 122 171.249 122 171.263C122 171.277 122 171.291 122 171.305C122 171.318 122 171.332 122 171.346C122 171.36 122 171.374 122 171.387C122 171.401 122 171.415 122 171.429C122 171.442 122 171.456 122 171.469C122 171.483 122 171.497 122 171.51C122 171.524 122 171.537 122 171.551C122 171.564 122 171.577 122 171.591C122 171.604 122 171.618 122 171.631C122 171.644 122 171.657 122 171.671C122 171.684 122 171.697 122 171.71C122 171.723 122 171.737 122 171.75C122 171.763 122 171.776 122 171.789C122 171.802 122 171.815 122 171.828C122 171.841 122 171.853 122 171.866C122 171.879 122 171.892 122 171.905C122 171.918 122 171.93 122 171.943C122 171.956 122 171.968 122 171.981C122 171.994 122 172.006 122 172.019C122 172.031 122 172.044 122 172.056C122 172.069 122 172.081 122 172.094C122 172.106 122 172.118 122 172.131C122 172.143 122 172.155 122 172.168C122 172.18 122 172.192 122 172.204C122 172.217 122 172.229 122 172.241C122 172.253 122 172.265 122 172.277C122 172.289 122 172.301 122 172.313C122 172.325 122 172.337 122 172.349C122 172.361 122 172.372 122 172.384C122 172.396 122 172.408 122 172.42C122 172.431 122 172.443 122 172.455C122 172.466 122 172.478 122 172.489C122 172.501 122 172.513 122 172.524C122 172.536 122 172.547 122 172.558C122 172.57 122 172.581 122 172.593C122 172.604 122 172.615 122 172.627C122 172.638 122 172.649 122 172.66C122 172.671 122 172.683 122 172.694C122 172.705 122 172.716 122 172.727C122 172.738 122 172.749 122 172.76C122 172.771 122 172.782 122 172.793C122 172.804 122 172.815 122 172.825C122 172.836 122 172.847 122 172.858C122 172.868 122 172.879 122 172.89C122 172.9 122 172.911 122 172.922C122 172.932 122 172.943 122 172.953C122 172.964 122 172.974 122 172.985C122 172.995 122 173.006 122 173.016C122 173.026 122 173.037 122 173.047C122 173.057 122 173.067 122 173.078C122 173.088 122 173.098 122 173.108C122 173.118 122 173.128 122 173.138C122 173.148 122 173.158 122 173.168C122 173.178 122 173.188 122 173.198C122 173.208 122 173.218 122 173.228C122 173.237 122 173.247 122 173.257C122 173.267 122 173.276 122 173.286C122 173.296 122 173.305 122 173.315C122 173.324 122 173.334 122 173.343C122 173.353 122 173.362 122 173.372C122 173.381 122 173.391 122 173.4C122 173.409 122 173.419 122 173.428C122 173.437 122 173.446 122 173.456C122 173.465 122 173.474 122 173.483C122 173.492 122 173.501 122 173.51C122 173.519 122 173.528 122 173.537C122 173.546 122 173.555 122 173.564C122 173.573 122 173.582 122 173.59C122 173.599 122 173.608 122 173.617C122 173.625 122 173.634 122 173.643C122 173.651 122 173.66 122 173.668C122 173.677 122 173.685 122 173.694C122 173.702 122 173.711 122 173.719C122 173.728 122 173.736 122 173.744C122 173.753 122 173.761 122 173.769C122 173.777 122 173.785 122 173.794C122 173.802 122 173.81 122 173.818C122 173.826 122 173.834 122 173.842C122 173.85 122 173.858 122 173.866C122 173.874 122 173.882 122 173.89C122 173.897 122 173.905 122 173.913C122 173.921 122 173.928 122 173.936C122 173.944 122 173.951 122 173.959C122 173.967 122 173.974 122 173.982C122 173.989 122 173.997 122 174.004C122 174.011 122 174.019 122 174.026C122 174.034 122 174.041 122 174.048C122 174.055 122 174.063 122 174.07C122 174.077 122 174.084 122 174.091C122 174.098 122 174.105 122 174.112C122 174.12 122 174.126 122 174.133C122 174.14 122 174.147 122 174.154C122 174.161 122 174.168 122 174.175C122 174.181 122 174.188 122 174.195C122 174.202 122 174.208 122 174.215C122 174.221 122 174.228 122 174.235C122 174.241 122 174.248 122 174.254C122 174.261 122 174.267 122 174.273C122 174.28 122 174.286 122 174.292C122 174.299 122 174.305 122 174.311C122 174.317 122 174.323 122 174.33C122 174.336 122 174.342 122 174.348C122 174.354 122 174.36 122 174.366C122 174.372 122 174.378 122 174.384C122 174.39 122 174.395 122 174.401C122 174.407 122 174.413 122 174.419C122 174.424 122 174.43 122 174.436C122 174.441 122 174.447 122 174.452C122 174.458 122 174.463 122 174.469C122 174.474 122 174.48 122 174.485C122 174.491 122 174.496 122 174.501C122 174.507 122 174.512 122 174.517C122 174.522 122 174.527 122 174.533C122 174.538 122 174.543 122 174.548C122 174.553 122 174.558 122 174.563C122 174.568 122 174.573 122 174.578C122 174.583 122 174.587 122 174.592C122 174.597 122 174.602 122 174.607C122 174.611 122 174.616 122 174.621C122 174.625 122 174.63 122 174.634C122 174.639 122 174.643 122 174.648C122 174.652 122 174.657 122 174.661C122 174.666 122 174.67 122 174.674C122 174.679 122 174.683 122 174.687C122 174.691 122 174.695 122 174.7C122 174.704 122 174.708 122 174.712C122 174.716 122 174.72 122 174.724C122 174.728 122 174.732 122 174.736C122 174.74 122 174.743 122 174.747C122 174.751 122 174.755 122 174.759C122 174.762 122 174.766 122 174.77C122 174.773 122 174.777 122 174.78C122 174.784 122 174.787 122 174.791C122 174.794 122 174.798 122 174.801C122 174.804 122 174.808 122 174.811C122 174.814 122 174.818 122 174.821C122 174.824 122 174.827 122 174.83C122 174.833 122 174.837 122 174.84C122 174.843 122 174.846 122 174.849C122 174.852 122 174.854 122 174.857C122 174.86 122 174.863 122 174.866C122 174.869 122 174.871 122 174.874C122 174.877 122 174.879 122 174.882C122 174.885 122 174.887 122 174.89C122 174.892 122 174.895 122 174.897C122 174.9 122 174.902 122 174.904C122 174.907 122 174.909 122 174.911C122 174.913 122 174.916 122 174.918C122 174.92 122 174.922 122 174.924C122 174.926 122 174.928 122 174.93C122 174.932 122 174.934 122 174.936C122 174.938 122 174.94 122 174.942C122 174.944 122 174.946 122 174.947C122 174.949 122 174.951 122 174.952C122 174.954 122 174.956 122 174.957C122 174.959 122 174.96 122 174.962C122 174.963 122 174.965 122 174.966C122 174.968 122 174.969 122 174.97C122 174.972 122 174.973 122 174.974C122 174.975 122 174.977 122 174.978C122 174.979 122 174.98 122 174.981C122 174.982 122 174.983 122 174.984C122 174.985 122 174.986 122 174.987C122 174.988 122 174.989 122 174.989C122 174.99 122 174.991 122 174.992C122 174.992 122 174.993 122 174.994C122 174.994 122 174.995 122 174.995C122 174.996 122 174.996 122 174.997C122 174.997 122 174.998 122 174.998C122 174.998 122 174.999 122 174.999C122 174.999 122 174.999 122 174.999C122 175 122 175 122 175C122 175 122 175 126 175ZM77.25 103.135C74.3093 105.846 74.3096 105.847 74.31 105.847C74.3103 105.847 74.3109 105.848 74.3115 105.849C74.3126 105.85 74.3143 105.852 74.3163 105.854C74.3205 105.858 74.3264 105.865 74.3342 105.873C74.3496 105.89 74.3722 105.914 74.4017 105.946C74.4608 106.01 74.5477 106.103 74.6612 106.225C74.8882 106.469 75.2217 106.826 75.6518 107.283C76.5119 108.196 77.7589 109.51 79.3137 111.118C82.4218 114.334 86.7674 118.738 91.7167 123.486C101.514 132.884 114.022 143.972 124.023 149.657L127.977 142.703C118.94 137.566 107.073 127.131 97.2548 117.713C92.3964 113.052 88.1241 108.723 85.0662 105.559C83.5381 103.978 82.3151 102.689 81.4759 101.798C81.0564 101.353 80.733 101.007 80.5155 100.773C80.4067 100.656 80.3244 100.568 80.2699 100.509C80.2426 100.479 80.2223 100.457 80.209 100.443C80.2024 100.436 80.1976 100.431 80.1945 100.427C80.193 100.426 80.1919 100.424 80.1912 100.424C80.1909 100.423 80.1908 100.423 80.1906 100.423C80.1906 100.423 80.1907 100.423 77.25 103.135ZM172.102 100.136L123.352 143.182L128.648 149.178L177.398 106.133L172.102 100.136ZM90.6239 78.2031L123.124 111.826L128.876 106.267L96.3761 72.6431L90.6239 78.2031ZM128.876 111.826L161.376 78.2031L155.624 72.6431L123.124 106.267L128.876 111.826ZM106.756 49.6792L122.517 77.5755L129.483 73.6402L113.721 45.7439L106.756 49.6792ZM129.456 77.6212L145.706 49.7249L138.794 45.6982L122.544 73.5945L129.456 77.6212ZM122 75.6079V109.046H130V75.6079H122ZM126 20L132.901 15.9533L125.894 4.00457L119.046 16.0448L126 20ZM191 130.846L195.495 137.464L201.688 133.257L197.901 126.799L191 130.846ZM61 130.846L54.099 126.799L50.3122 133.257L56.5047 137.464L61 130.846ZM126 175L121.505 181.618L126 184.671L130.495 181.618L126 175ZM77.25 103.135L84.151 107.181L84.151 107.181L77.25 103.135ZM174.75 103.135L167.849 107.181L167.849 107.181L174.75 103.135ZM110.238 47.7116L117.052 51.904L117.124 51.7866L117.192 51.6668L110.238 47.7116ZM186.505 124.229L121.505 168.382L130.495 181.618L195.495 137.464L186.505 124.229ZM130.495 168.382L65.4953 124.229L56.5047 137.464L121.505 181.618L130.495 168.382ZM67.901 134.893L84.151 107.181L70.349 99.0879L54.099 126.799L67.901 134.893ZM77.25 103.135C84.151 107.181 84.151 107.181 84.1511 107.181C84.1512 107.181 84.1513 107.181 84.1515 107.181C84.1517 107.18 84.1523 107.179 84.1528 107.178C84.154 107.176 84.1558 107.173 84.1582 107.169C84.163 107.161 84.1702 107.149 84.1796 107.133C84.1986 107.1 84.2267 107.052 84.2638 106.989C84.3379 106.863 84.4474 106.676 84.589 106.435C84.8722 105.952 85.2838 105.25 85.7977 104.373C86.8253 102.621 88.2616 100.171 89.8963 97.3839C93.1655 91.8088 97.228 84.8809 100.401 79.4699L86.599 71.3764C83.426 76.7874 79.3635 83.7153 76.0942 89.2904C74.4596 92.078 73.0233 94.5274 71.9956 96.2799C71.4818 97.1561 71.0702 97.8581 70.7869 98.3411C70.6453 98.5826 70.5359 98.7693 70.4618 98.8956C70.4247 98.9588 70.3965 99.0069 70.3776 99.0392C70.3681 99.0554 70.361 99.0674 70.3562 99.0757C70.3538 99.0797 70.352 99.0828 70.3508 99.0849C70.3503 99.0858 70.3497 99.0868 70.3494 99.0872C70.3493 99.0874 70.3492 99.0876 70.3491 99.0878C70.349 99.0879 70.349 99.0879 77.25 103.135ZM151.599 79.4699C154.772 84.8809 158.834 91.8088 162.104 97.3839C163.738 100.171 165.175 102.621 166.202 104.373C166.716 105.25 167.128 105.952 167.411 106.435C167.553 106.676 167.662 106.863 167.736 106.989C167.773 107.052 167.801 107.1 167.82 107.133C167.83 107.149 167.837 107.161 167.842 107.169C167.844 107.173 167.846 107.176 167.847 107.178C167.848 107.179 167.848 107.18 167.849 107.181C167.849 107.181 167.849 107.181 167.849 107.181C167.849 107.181 167.849 107.181 174.75 103.135C181.651 99.0879 181.651 99.0879 181.651 99.0878C181.651 99.0876 181.651 99.0874 181.651 99.0872C181.65 99.0867 181.65 99.0859 181.649 99.0849C181.648 99.0828 181.646 99.0797 181.644 99.0757C181.639 99.0675 181.632 99.0553 181.622 99.0392C181.603 99.0069 181.575 98.9588 181.538 98.8956C181.464 98.7693 181.355 98.5826 181.213 98.3411C180.93 97.8581 180.518 97.1561 180.004 96.2799C178.977 94.5274 177.54 92.078 175.906 89.2904C172.637 83.7153 168.574 76.7874 165.401 71.3764L151.599 79.4699ZM167.849 107.181L184.099 134.893L197.901 126.799L181.651 99.0879L167.849 107.181ZM100.401 79.4699C103.54 74.1174 107.696 67.2353 111.084 61.6667C112.774 58.8876 114.267 56.4454 115.337 54.6982C115.872 53.8248 116.302 53.1253 116.597 52.6446C116.744 52.4042 116.858 52.2186 116.935 52.0933C116.974 52.0307 117.003 51.9831 117.023 51.9513C117.032 51.9354 117.04 51.9235 117.045 51.9155C117.047 51.9116 117.049 51.9086 117.05 51.9067C117.051 51.9057 117.051 51.905 117.051 51.9046C117.052 51.9043 117.052 51.9042 117.052 51.9041C117.052 51.904 117.052 51.904 110.238 47.7116C103.425 43.5191 103.425 43.5193 103.425 43.5194C103.425 43.5196 103.424 43.5198 103.424 43.5201C103.424 43.5207 103.423 43.5215 103.423 43.5226C103.421 43.5248 103.419 43.5279 103.417 43.5321C103.412 43.5406 103.404 43.553 103.394 43.5694C103.374 43.6022 103.344 43.6508 103.305 43.7145C103.226 43.8418 103.111 44.0296 102.962 44.2723C102.664 44.7575 102.232 45.462 101.693 46.341C100.617 48.0988 99.115 50.5554 97.4141 53.3515C94.0189 58.9331 89.8064 65.9068 86.599 71.3764L100.401 79.4699ZM117.192 51.6668L132.954 23.9552L119.046 16.0448L103.284 43.7564L117.192 51.6668ZM126 20C119.099 24.0467 119.099 24.0468 119.099 24.0469C119.099 24.0471 119.099 24.0473 119.099 24.0475C119.1 24.048 119.1 24.0488 119.101 24.0498C119.102 24.0519 119.104 24.0549 119.106 24.059C119.111 24.0672 119.118 24.0794 119.128 24.0955C119.147 24.1278 119.175 24.1759 119.212 24.2391C119.286 24.3654 119.395 24.5521 119.537 24.7936C119.82 25.2766 120.232 25.9786 120.746 26.8548C121.773 28.6073 123.21 31.0567 124.844 33.8443C128.113 39.4194 132.176 46.3473 135.349 51.7583L149.151 43.6648C145.978 38.2538 141.916 31.3259 138.646 25.7508C137.012 22.9632 135.575 20.5138 134.548 18.7613C134.034 17.8851 133.622 17.1831 133.339 16.7001C133.197 16.4586 133.088 16.2719 133.014 16.1456C132.977 16.0824 132.949 16.0343 132.93 16.002C132.92 15.9859 132.913 15.9737 132.908 15.9655C132.906 15.9615 132.904 15.9584 132.903 15.9563C132.902 15.9553 132.902 15.9546 132.901 15.954C132.901 15.9538 132.901 15.9536 132.901 15.9535C132.901 15.9533 132.901 15.9533 126 20ZM135.349 51.7583C138.522 57.1693 140.998 61.3917 143.474 65.6141C145.95 69.8365 148.426 74.0588 151.599 79.4699L165.401 71.3764C162.228 65.9654 159.752 61.743 157.276 57.5206C154.8 53.2982 152.324 49.0758 149.151 43.6648L135.349 51.7583Z" fill="url(#paint0_linear_417_41)" mask="url(#path-1-inside-1_417_41)"/>
</g>
</g>
<defs>
<linearGradient id="paint0_linear_417_41" x1="126" y1="20" x2="126" y2="175" gradientUnits="userSpaceOnUse">
<stop stop-color="#5558FF"/>
<stop offset="1" stop-color="#00C0FF"/>
</linearGradient>
</defs>
</svg>
