<svg width="200" height="101" viewBox="0 0 200 101" fill="none" xmlns="http://www.w3.org/2000/svg">
<path d="M41.5416 36.9575H36.4575V31.5557H41.5416V36.9575ZM27.8781 57.691C27.8781 59.8624 28.646 61.7424 30.1818 63.3312C31.7706 64.867 33.6771 65.6349 35.9014 65.6349H41.5416V71.0368H35.9014C32.1942 71.0368 29.0432 69.7393 26.4482 67.1443C23.8532 64.4963 22.5557 61.3452 22.5557 57.691V31.6351H27.8781V57.691Z" fill="#262626"/>
<path d="M58.2063 37.1957H55.7437V55.9433H58.2063L58.1269 61.2657H47.8793L47.9587 55.8639H50.3419V37.1957H47.9587V31.7939L58.2063 31.8733V37.1957ZM58.2063 65.6348L58.1269 71.0367L47.8793 70.9572L47.9587 65.6348H58.2063Z" fill="#262626"/>
<path d="M81.6389 71.0369H69.0876V65.6351H81.6389V71.0369ZM89.3445 31.6353H94.7463V71.0369H89.3445V57.8501C86.6436 60.1274 83.519 61.266 79.9707 61.266C75.8399 61.266 72.3181 59.8096 69.4054 56.8969C66.5456 53.9841 65.1157 50.4888 65.1157 46.4109C65.1157 42.3331 66.5456 38.8642 69.4054 36.0044C72.3181 33.0917 75.8399 31.6353 79.9707 31.6353C83.519 31.6353 86.6436 32.7739 89.3445 35.0512V31.6353ZM73.2184 53.1632C75.072 54.9638 77.2963 55.8642 79.8913 55.8642C82.5392 55.8642 84.7635 54.9638 86.5641 53.1632C88.4177 51.3097 89.3445 49.0854 89.3445 46.4904C89.3445 43.8424 88.4177 41.6181 86.5641 39.8175C84.7635 37.9639 82.5392 37.0371 79.8913 37.0371C77.2963 37.0371 75.072 37.9639 73.2184 39.8175C71.4178 41.6181 70.5175 43.8424 70.5175 46.4904C70.5175 49.0854 71.4178 51.3097 73.2184 53.1632Z" fill="#262626"/>
<path d="M114.313 37.1163H100.014V31.7939L114.313 31.7144V37.1163ZM122.734 41.4854H128.135V71.0367H117.729C114.287 71.0367 111.347 69.8451 108.911 67.4619C106.475 65.0258 105.257 62.0866 105.257 58.6442V46.8078H100.014V41.4854H110.659V58.6442C110.659 59.9152 110.977 61.1068 111.612 62.219C112.248 63.2781 113.095 64.1255 114.154 64.761C115.266 65.3965 116.458 65.7143 117.729 65.7143H122.734V41.4854Z" fill="#262626"/>
<path d="M146.179 37.1957H143.716V55.9433H146.179L146.099 61.2657H135.852L135.931 55.8639H138.314V37.1957H135.931V31.7939L146.179 31.8733V37.1957ZM146.179 65.6348L146.099 71.0367L135.852 70.9572L135.931 65.6348H146.179Z" fill="#262626"/>
<path d="M178.111 71.0367H167.546C163.521 71.0367 160.079 69.6068 157.219 66.747C154.359 63.8872 152.929 60.4448 152.929 56.4199C152.929 52.395 154.359 48.9527 157.219 46.0929C160.079 43.2331 163.521 41.8032 167.546 41.8032H172.709V31.7144H178.111V71.0367ZM167.546 65.6348H172.709V47.1256H167.546C165.004 47.1256 162.806 48.0524 160.952 49.9059C159.152 51.7066 158.252 53.8779 158.252 56.4199C158.252 58.962 159.152 61.1333 160.952 62.9339C162.806 64.7345 165.004 65.6348 167.546 65.6348ZM168.658 37.0368L158.41 37.1163V31.7144H168.658V37.0368Z" fill="#262626"/>
</svg>
